<svg xmlns="http://www.w3.org/2000/svg" width="773" height="137" fill="none"><path fill="#EEE" d="M0 43.991a32.795 32.795 0 0 0 17.404 5.95c9.651 0 12.977-5.833 12.977-17.31V10.236c.07-5.27-1.077-8.41-4.497-10.236h20.332c-3.467 1.92-4.474 5.06-4.474 10.236v22.558c0 17.404-6.348 25.532-22.956 25.532-7.191 0-12.227-1.828-15.226-1.828a8.34 8.34 0 0 0-3.56.962v-13.47Zm113.326 6.278c-8.268 0-13.07-4.872-13.07-13.422 0-9.37 5.106-14.898 14.055-14.898 8.268 0 13.141 4.895 13.141 13.563 0 9.37-5.177 14.757-14.219 14.757m25.041-14.055c0-13.704-8.878-21.785-24.502-21.785-15.156 0-24.338 9.066-24.338 22.276 0 13.212 8.807 21.317 24.338 21.317 15.061 0 24.431-9.23 24.431-21.808M250.147 46.66c0 5.177 1.148 8.34 4.475 10.26h-19.021c3.326-1.92 4.497-5.083 4.497-10.26V10.237c0-5.27-1.171-8.41-4.497-10.236h23.424a3.864 3.864 0 0 0-.538 1.827c.048.723.231 1.43.538 2.085l17.381 42.679 17.709-42.774c.262-.568.42-1.18.468-1.804A4.679 4.679 0 0 0 293.974 0h23.87c-3.326 1.828-4.474 4.966-4.474 10.236v36.425c0 4.685.702 7.59 4.099 10.26h-19.091c3.467-2.787 4.099-5.645 4.099-10.26V8.41l-19.629 44.856a4.926 4.926 0 0 0-.562 1.921c.057.612.25 1.204.562 1.733h-13.469a7.05 7.05 0 0 0 .468-1.522 6.698 6.698 0 0 0-.632-2.342L250.147 7.473V46.66Zm129.326-5.88 8.432-19.442 8.972 19.444h-17.404v-.002Zm31.529 8.62-13.68-30.662a4.876 4.876 0 0 1-.609-1.897 4.865 4.865 0 0 1 .516-1.523h-17.218c.219.46.369.95.446 1.453a5.367 5.367 0 0 1-.609 1.968L365.09 49.425a26.816 26.816 0 0 1-4.872 7.496h15.999a4.68 4.68 0 0 1-1.617-3.865 8.303 8.303 0 0 1 .469-2.718l.914-2.037h23.963l1.171 2.717c.352.797.536 1.658.538 2.53a4.843 4.843 0 0 1-1.546 3.373h15.765a26.469 26.469 0 0 1-4.872-7.496m47.153-34.106h17.357a7.028 7.028 0 0 0-3.654 7.027v27.43h11.712a24.433 24.433 0 0 0 16.397-4.966 85.89 85.89 0 0 0-3.959 10.307c.089.66.356 1.284.773 1.804h-38.65c2.484-1.124 3.561-3.444 3.561-7.028v-27.43c0-3.794-1.077-6.02-3.561-7.027M564.29 50.269c-8.269 0-13.071-4.872-13.071-13.422 0-9.37 5.107-14.898 14.055-14.898 8.268 0 13.164 4.895 13.164 13.563 0 9.37-5.2 14.757-14.241 14.757m25.04-14.055c0-13.704-8.878-21.785-24.502-21.785-15.132 0-24.361 9.066-24.361 22.276 0 13.212 8.831 21.317 24.361 21.317 15.156 0 24.502-9.23 24.502-21.808Zm55.82 13.422c0 3.842.866 5.996 3.56 7.285h-16.396c2.482-1.124 3.466-3.443 3.466-7.285V22.58c0-3.817-.984-6.136-3.466-7.261h20.308a2.137 2.137 0 0 0-.375 1.055c.073.538.257 1.057.539 1.522l16.257 31.505-.164-26.726c0-3.819-1.219-6.207-3.631-7.262h16.019c-3.344 1.593-3.418 3.982-3.418 7.027v30.897a4.913 4.913 0 0 0 1.029 3.584h-16.699c.282-.373.445-.822.468-1.289a3.121 3.121 0 0 0-.538-1.358l-17.639-32.396.68 27.757Zm84.047.14V22.442c0-3.771-1.008-5.997-3.493-7.027h43.592a3.03 3.03 0 0 0-.677 1.686c0 .82 1.151 3.701 2.626 9.019a27.706 27.706 0 0 0-15.297-3.584h-16.537v9.721h18.29a14.592 14.592 0 0 0 5.577-1.101l-3.465 5.856a4.835 4.835 0 0 1-4.332 2.342h-16.07v10.472h17.45A24.565 24.565 0 0 0 773 44.718 80.91 80.91 0 0 0 769.067 55c.082.665.339 1.295.745 1.827h-44.201c2.485-1.078 3.493-3.373 3.493-7.027M280.95 111.758h8.574c-1.382.703-1.921 2.084-1.921 4.239v16.397h7.542c3.33.234 6.649-.585 9.487-2.342a28.52 28.52 0 0 0-1.616 4.357c.019.484.097.964.234 1.429h-22.159a4.412 4.412 0 0 0 1.874-4.264v-15.577c0-2.178-.562-3.536-1.874-4.239m49.8 21.269a5.04 5.04 0 0 1-5.284-3.411 5.053 5.053 0 0 1-.221-2.234 5.523 5.523 0 0 1 1.058-4.082 5.522 5.522 0 0 1 3.627-2.149 5.479 5.479 0 0 1 1.241 0 5.074 5.074 0 0 1 3.731 1.193 5.096 5.096 0 0 1 1.775 3.492c.034.35.034.703 0 1.054a5.556 5.556 0 0 1-4.686 6.184 6.543 6.543 0 0 1-1.171 0m10.495-5.95c0-5.762-3.702-9.182-10.261-9.182-6.559 0-10.283 3.865-10.283 9.323 0 5.457 3.701 8.971 10.283 8.971 6.582 0 10.261-3.889 10.261-9.205m22.276 5.738c0 1.617.327 2.53 1.475 3.069h-6.816c1.007-.492 1.476-1.452 1.476-3.069v-11.384c0-1.616-.469-2.577-1.476-3.069h8.503a1.4 1.4 0 0 0-.141.446c.033.232.113.455.234.656l6.864 13.187v-11.22a3 3 0 0 0-1.546-3.069h6.723c-1.382.68-1.382 1.687-1.382 2.999v13c-.045.535.087 1.07.375 1.523h-7.028c.121-.158.201-.343.235-.539a1.83 1.83 0 0 0-.235-.586l-7.425-13.632.164 11.688Zm38.181.047v-11.501h2.952c4.942 0 7.168 1.429 7.168 5.762 0 4.334-2.109 5.739-6.793 5.739h-3.35m4.123-14.5h-9.909c1.077.492 1.476 1.453 1.476 3.069v11.384c0 1.617-.399 2.577-1.476 3.069h9.979c6.582 0 10.517-3.444 10.517-8.807 0-5.365-3.63-8.715-10.587-8.715Zm38.04 14.711a5.115 5.115 0 0 1-3.723-1.202 5.11 5.11 0 0 1-1.781-3.483 4.842 4.842 0 0 1 0-1.007 5.527 5.527 0 0 1 4.685-6.231c.42-.047.844-.047 1.265 0a5.079 5.079 0 0 1 5.504 4.685c.035.351.035.704 0 1.054a5.556 5.556 0 0 1-4.942 6.16 5.626 5.626 0 0 1-1.101 0m10.517-5.949c0-5.763-3.725-9.182-10.283-9.182-6.559 0-10.283 3.841-10.283 9.369s3.7 8.971 10.283 8.971c6.582 0 10.283-3.888 10.283-9.205m22.44 5.762c0 1.617.305 2.53 1.453 3.069h-6.887c1.031-.492 1.5-1.452 1.5-3.069v-11.384c0-1.616-.469-2.577-1.5-3.069h8.503c-.071.14-.119.29-.14.446.023.231.095.454.211.656l6.816 13.187v-11.22a3 3 0 0 0-1.522-3.069h6.699c-1.382.68-1.382 1.687-1.382 2.999v13c-.045.535.087 1.07.375 1.523h-7.028c.121-.158.201-.343.234-.539a1.805 1.805 0 0 0-.234-.586l-7.425-13.632.327 11.688Z"/></svg>