<svg width="773" height="61" viewBox="0 0 773 61" fill="none" xmlns="http://www.w3.org/2000/svg">
<path fill-rule="evenodd" clip-rule="evenodd" d="M183.583 30.1742C183.583 13.3846 197.652 0 224.137 0C250.632 0 264.847 13.3846 264.847 30.1742C264.847 47.2026 251.446 60.7764 224.292 60.7764C197.13 60.7764 183.583 47.2026 183.583 30.1742ZM210.1 29.8198C209.922 40.5819 214.172 51.4083 223.845 51.5827C233.81 51.7719 238.093 40.828 238.271 30.323C238.467 19.1826 233.68 9.28552 224.618 9.12023C215.556 8.96413 210.296 18.6794 210.1 29.8198ZM13.0919 10.0973L39.7013 59.0574L70.5013 59.0813L96.6537 10.0973H109.762V1.22498H70.3311V10.0973H81.7208L62.6769 45.7554L43.3813 10.0973H57.2225L57.2133 1.22498H0.00925996L0 10.0973H13.0919ZM352.062 10.0734V1.22498L404.815 1.23232V10.0807H391.673V50.0437H403.855C415.139 50.0437 422.54 42.4901 422.54 32.2477H431.243V59.0078L352.062 59.0152V50.0511H365.36L365.343 10.0734H352.062ZM521.218 10.0973L547.818 59.0574L578.625 59.0813L604.777 10.0973H617.886V1.22498H578.455V10.0973H589.846L570.802 45.7554L551.505 10.0973H565.339V1.22498H508.133L508.126 10.0973H521.218ZM691.734 30.1742C691.734 13.3846 705.803 0 732.288 0C758.783 0 773 13.3846 773 30.1742C773 47.2026 759.597 60.7764 732.444 60.7764C705.283 60.7764 691.734 47.2026 691.734 30.1742ZM718.253 29.8198C718.074 40.5819 722.323 51.4083 731.996 51.5827C741.954 51.7719 746.237 40.828 746.417 30.323C746.611 19.1826 741.832 9.28552 732.77 9.12023C723.707 8.96413 718.447 18.6794 718.253 29.8198Z" fill="#EEEEEE"/>
</svg>
