<svg width="235" height="297" viewBox="0 0 235 297" fill="none" xmlns="http://www.w3.org/2000/svg">
<path d="M0 297V0H123.475C189.195 0 223.847 29.1257 223.847 74.6602C223.847 107.478 201.144 132.501 168.483 139.475V142.347C204.729 143.577 235 171.062 235 213.315C235 261.721 196.763 297 133.831 297H0ZM114.314 234.236C141.398 234.236 154.941 223.57 154.941 203.47C154.941 181.728 139.805 169.421 115.508 169.421H75.678V234.236H114.314ZM109.534 120.605C130.644 120.605 145.78 109.939 145.78 91.0691C145.78 72.1989 131.441 61.5331 110.729 61.5331H75.678V120.605H109.534Z" fill="#EEEEEE"/>
</svg>
