<svg width="773" height="74" viewBox="0 0 773 74" fill="none" xmlns="http://www.w3.org/2000/svg">
<path d="M73.6521 21.2694V8.44522C73.6521 8.44522 40.3494 -10.5565 13.0799 8.44522C8.92608 12.0976 5.6118 16.5744 3.35694 21.5786C1.10208 26.5828 -0.0418091 32 0.0011676 37.4708C0.0011676 56.3703 15.1442 66.4942 15.1442 66.4942C15.1442 66.4942 39.6579 83.3682 74.7631 66.4942V34.0958H36.8267V46.2463H60.9952V58.3946C60.9952 58.3946 15.8324 74.0018 16.5205 37.0202C16.5205 37.0202 14.4561 16.5459 36.8267 13.8457C36.8267 13.8457 51.6257 9.79588 73.6521 21.2705V21.2694ZM118.394 0.0452272H132.161V73.9941H118.394V0.0452272ZM167.266 0.0452272H183.098L205.812 53.6689L229.216 0.0452272H245.736L212.007 72.3072H199.618L167.266 0.0452272ZM278.776 0.0452272V73.9941H340.038V60.419H293.919V42.8691H326.272V31.3945H293.919V13.8446H340.038V0.0452272H278.776ZM379.961 72.3072H394.418V24.6455L439.159 72.3072H451.547V0.0452272H437.783V49.6213L391.928 0.0452272H379.961V72.3072ZM556.864 23.296C556.864 23.296 552.045 13.8457 527.953 13.1709C527.953 13.1709 498.355 12.9434 499.731 37.0202C501.107 61.097 528.274 59.7453 528.274 59.7453C528.274 59.7453 553.421 59.0705 556.864 50.9709V66.233C556.864 66.233 551.306 72.3072 528.274 73.9941C528.274 73.9941 484.588 75.2697 484.588 40.17C484.588 40.17 481.836 -0.931036 525.199 0.0452272C525.199 0.0452272 549.292 -0.32917 556.864 6.42087V23.296ZM596.099 0.0452272H611.243V30.7219H650.476V0.0452272H664.933V72.3072H651.166V43.5461H610.554V72.3072H596.099V0.0452272ZM723.442 42.8713V72.3072H738.583V42.8713L773 0.0452272H755.103L731.011 30.0471L708.298 0.0452272H689.712L723.442 42.8713Z" fill="#EEEEEE"/>
</svg>
