<svg width="219" height="298" viewBox="0 0 219 298" fill="none" xmlns="http://www.w3.org/2000/svg">
<path d="M0 297.413V0H114.799C175.901 0 208.119 29.1661 208.119 74.7639C208.119 107.627 187.01 132.685 156.644 139.669V142.544C190.343 143.777 218.487 171.3 218.487 213.611C218.487 262.085 182.937 297.413 124.427 297.413H0ZM106.281 234.562C131.463 234.562 144.054 223.881 144.054 203.752C144.054 181.98 129.982 169.657 107.392 169.657H70.3604V234.562H106.281ZM101.837 120.772C121.464 120.772 135.536 110.092 135.536 91.1955C135.536 72.2992 122.205 61.6186 102.948 61.6186H70.3604V120.772H101.837Z" fill="#EEEEEE"/>
</svg>
