<svg width="1080" height="106" fill="none" xmlns="http://www.w3.org/2000/svg"><path d="M102.903 30.304V12.032s-46.529-27.072-84.628 0A54.975 54.975 0 0 0 .002 53.387c0 26.927 21.157 41.351 21.157 41.351s34.25 24.042 83.297 0v-46.16H51.452V65.89H85.22v17.308s-63.1 22.237-62.138-30.453c0 0-2.885-29.171 28.37-33.018 0 0 20.677-5.77 51.451 10.578v-.001ZM165.415.064h19.234v105.36h-19.234V.064Zm68.282 0h22.118l31.736 76.401L320.25.065h23.082L296.207 103.02h-17.31L233.697.064Zm155.796 0v105.36h85.592V86.083H410.65V61.078h45.202V44.73H410.65V19.725h64.435V.065h-85.592ZM530.864 103.02h20.198V35.114l62.511 67.906h17.308V.064H611.65V70.7L547.584.063h-16.72V103.02Zm247.161-69.829s-6.733-13.464-40.394-14.426c0 0-41.352-.324-39.43 33.98 1.923 34.304 39.879 32.378 39.879 32.378s35.134-.962 39.945-12.502v21.745s-7.766 8.654-39.945 11.058c0 0-61.036 1.817-61.036-48.191 0 0-3.845-58.56 56.74-57.169 0 0 33.662-.533 44.241 9.084v24.043ZM832.842.064h21.159v43.707h54.814V.064h20.199V103.02h-19.235V62.043h-56.741v40.977h-20.196V.064Zm177.918 61.017v41.939h21.15V61.081L1080 .064h-25l-33.66 42.746L989.601.064h-25.967l47.126 61.017Z" fill="#fff"/></svg>