<svg width="500" height="49" fill="none" xmlns="http://www.w3.org/2000/svg"><path d="M47.64 14.03V5.57S26.1-6.962 8.46 5.57A25.451 25.451 0 0 0 0 24.717C0 37.182 9.797 43.86 9.797 43.86s15.856 11.13 38.563 0V22.49H23.821v8.015h15.632v8.013S10.241 48.812 10.686 24.419c0 0-1.335-13.505 13.135-15.286 0 0 9.572-2.672 23.82 4.897Zm28.941-14h8.905v48.777H76.58V.03Zm31.612 0h10.24l14.693 35.37L148.264.03h10.686l-21.817 47.665h-8.014L108.193.03Zm72.128 0v48.777h39.626v-8.954h-29.831V28.277h20.927v-7.569h-20.927V9.132h29.831V.03h-39.626Zm65.449 47.665h9.351V16.256l28.94 31.439h8.014V.03h-8.904v32.7L253.511.03h-7.741v47.665Zm114.427-32.329s-3.118-6.233-18.701-6.678c0 0-19.145-.15-18.255 15.731.891 15.881 18.463 14.99 18.463 14.99s16.266-.445 18.493-5.788v10.067s-3.596 4.007-18.493 5.12c0 0-28.258.84-28.258-22.311 0 0-1.78-27.111 26.269-26.467 0 0 15.584-.247 20.482 4.205v11.131ZM385.575.03h9.796v20.235h25.377V.03h9.351v47.665h-8.905V28.724h-26.269v18.97h-9.35V.03Zm82.369 28.248v19.417h9.794V28.278L500 .03h-11.576L472.84 19.82 458.149.03h-12.022l21.817 28.248Z" fill="#fff"/></svg>